<svg version="1.1" id="Layer_1" xmlns="http://www.w3.org/2000/svg" xmlns:xlink="http://www.w3.org/1999/xlink" x="0px" y="0px"
	 width="100%" viewBox="0 0 558 559" enable-background="new 0 0 558 559" xml:space="preserve">
<path fill="#FFFEFE" opacity="1.000000" stroke="none" 
	d="
M1.000000,222.000000 
	C1.000000,148.016434 1.000000,74.532860 1.000000,1.024643 
	C186.941986,1.024643 372.884003,1.024643 558.912964,1.024643 
	C558.912964,187.233643 558.912964,373.467346 558.912964,559.850525 
	C373.000092,559.850525 187.000061,559.850525 1.000000,559.850525 
	C1.000000,447.449188 1.000000,334.974579 1.000000,222.000000 
M316.363403,8.926559 
	C304.320770,7.879837 292.278137,6.833114 279.960632,5.762501 
	C279.960632,50.468239 279.960632,94.009705 279.960632,137.544235 
	C363.776978,139.149170 423.239166,213.845078 412.790466,291.305908 
	C407.975250,327.003265 391.662628,356.773254 363.476807,379.305603 
	C328.780426,407.042664 289.249634,415.294922 245.310730,405.875885 
	C234.265686,448.314056 223.267899,490.570709 212.229462,532.983521 
	C213.956146,533.472412 214.890213,533.770081 215.840530,534.000977 
	C251.292267,542.614136 287.110260,543.770203 322.949585,537.629517 
	C374.265106,528.837219 419.653076,507.003601 458.048431,471.805756 
	C502.956543,430.637482 531.321350,379.893494 541.513672,319.646881 
	C553.632812,248.010895 538.983948,181.881058 498.143616,121.844185 
	C469.609619,79.898155 431.500885,49.163403 385.176666,28.627281 
	C363.446625,18.994070 340.701172,12.740665 316.363403,8.926559 
M223.899414,149.324860 
	C240.689789,142.032349 258.332458,138.453201 276.441101,137.936081 
	C276.441101,93.705215 276.441101,50.164013 276.441101,5.815370 
	C187.001144,9.309831 114.488701,44.916199 61.520706,117.019508 
	C20.252884,173.195816 5.036141,236.779114 12.406191,306.465881 
	C56.412373,300.829865 99.601662,295.298492 142.449005,289.810913 
	C139.788910,225.560989 165.140671,178.176132 223.899414,149.324860 
M169.717499,355.752838 
	C156.433380,337.940521 147.823257,318.113739 144.178696,296.179932 
	C143.778412,293.770935 143.034348,292.635742 140.333557,293.058075 
	C135.574509,293.802185 130.764343,294.212891 125.983452,294.824768 
	C96.141731,298.644104 66.301292,302.473511 36.462528,306.315948 
	C28.750095,307.309113 21.045221,308.361023 13.355801,309.383453 
	C25.587999,416.850616 110.220665,508.301514 209.205948,531.800781 
	C209.489807,531.082031 209.866226,530.357849 210.066895,529.587952 
	C220.603729,489.159332 231.103104,448.720947 241.697693,408.307495 
	C242.442047,405.468109 241.489349,404.547211 238.910629,403.771729 
	C210.904144,395.349854 188.106842,379.328796 169.717499,355.752838 
z"/>
<path fill="#E60101" opacity="1.000000" stroke="none" 
	d="
M316.799194,8.994582 
	C340.701172,12.740665 363.446625,18.994070 385.176666,28.627281 
	C431.500885,49.163403 469.609619,79.898155 498.143616,121.844185 
	C538.983948,181.881058 553.632812,248.010895 541.513672,319.646881 
	C531.321350,379.893494 502.956543,430.637482 458.048431,471.805756 
	C419.653076,507.003601 374.265106,528.837219 322.949585,537.629517 
	C287.110260,543.770203 251.292267,542.614136 215.840530,534.000977 
	C214.890213,533.770081 213.956146,533.472412 212.229462,532.983521 
	C223.267899,490.570709 234.265686,448.314056 245.310730,405.875885 
	C289.249634,415.294922 328.780426,407.042664 363.476807,379.305603 
	C391.662628,356.773254 407.975250,327.003265 412.790466,291.305908 
	C423.239166,213.845078 363.776978,139.149170 279.960632,137.544235 
	C279.960632,94.009705 279.960632,50.468239 279.960632,5.762501 
	C292.278137,6.833114 304.320770,7.879837 316.799194,8.994582 
z"/>
<path fill="#0101FF" opacity="1.000000" stroke="none" 
	d="
M223.553619,149.488571 
	C165.140671,178.176132 139.788910,225.560989 142.449005,289.810913 
	C99.601662,295.298492 56.412373,300.829865 12.406191,306.465881 
	C5.036141,236.779114 20.252884,173.195816 61.520706,117.019508 
	C114.488701,44.916199 187.001144,9.309831 276.441101,5.815370 
	C276.441101,50.164013 276.441101,93.705215 276.441101,137.936081 
	C258.332458,138.453201 240.689789,142.032349 223.553619,149.488571 
z"/>
<path fill="#CCA301" opacity="1.000000" stroke="none" 
	d="
M169.936905,356.032532 
	C188.106842,379.328796 210.904144,395.349854 238.910629,403.771729 
	C241.489349,404.547211 242.442047,405.468109 241.697693,408.307495 
	C231.103104,448.720947 220.603729,489.159332 210.066895,529.587952 
	C209.866226,530.357849 209.489807,531.082031 209.205948,531.800781 
	C110.220665,508.301514 25.587999,416.850616 13.355801,309.383453 
	C21.045221,308.361023 28.750095,307.309113 36.462528,306.315948 
	C66.301292,302.473511 96.141731,298.644104 125.983452,294.824768 
	C130.764343,294.212891 135.574509,293.802185 140.333557,293.058075 
	C143.034348,292.635742 143.778412,293.770935 144.178696,296.179932 
	C147.823257,318.113739 156.433380,337.940521 169.936905,356.032532 
z"/>
</svg>